<mxfile host="app.diagrams.net" modified="2022-10-21T07:42:11.326Z" agent="5.0 (Windows)" etag="rI9vRrfEkmZ40lsTT2RR" version="20.2.7" type="github">
  <diagram id="StOS1vzUrXjeFybrNEK_" name="第 1 页">
    <mxGraphModel dx="953" dy="579" grid="1" gridSize="10" guides="1" tooltips="1" connect="1" arrows="1" fold="1" page="1" pageScale="1" pageWidth="827" pageHeight="1169" math="0" shadow="0">
      <root>
        <mxCell id="0" />
        <mxCell id="1" parent="0" />
        <mxCell id="o9fWoudc14TNuLw_aVvr-15" value="" style="rounded=1;whiteSpace=wrap;html=1;arcSize=5;dashed=1;" vertex="1" parent="1">
          <mxGeometry x="490" y="240" width="280" height="210" as="geometry" />
        </mxCell>
        <mxCell id="o9fWoudc14TNuLw_aVvr-13" value="" style="rounded=1;whiteSpace=wrap;html=1;arcSize=5;dashed=1;" vertex="1" parent="1">
          <mxGeometry x="60" y="310" width="280" height="140" as="geometry" />
        </mxCell>
        <mxCell id="o9fWoudc14TNuLw_aVvr-3" value="" style="rounded=1;whiteSpace=wrap;html=1;arcSize=5;dashed=1;" vertex="1" parent="1">
          <mxGeometry x="60" y="60" width="280" height="190" as="geometry" />
        </mxCell>
        <mxCell id="o9fWoudc14TNuLw_aVvr-1" value="前端" style="rounded=0;whiteSpace=wrap;html=1;" vertex="1" parent="1">
          <mxGeometry x="130" y="90" width="120" height="60" as="geometry" />
        </mxCell>
        <mxCell id="o9fWoudc14TNuLw_aVvr-2" value="后端" style="rounded=0;whiteSpace=wrap;html=1;" vertex="1" parent="1">
          <mxGeometry x="130" y="170" width="120" height="60" as="geometry" />
        </mxCell>
        <mxCell id="o9fWoudc14TNuLw_aVvr-4" value="天翼物联网平台" style="rounded=0;whiteSpace=wrap;html=1;" vertex="1" parent="1">
          <mxGeometry x="130" y="360" width="120" height="60" as="geometry" />
        </mxCell>
        <mxCell id="o9fWoudc14TNuLw_aVvr-5" value="设备已接入平台" style="rounded=0;whiteSpace=wrap;html=1;" vertex="1" parent="1">
          <mxGeometry x="130" y="510" width="120" height="60" as="geometry" />
        </mxCell>
        <mxCell id="o9fWoudc14TNuLw_aVvr-6" value="政务云" style="text;html=1;strokeColor=none;fillColor=none;align=center;verticalAlign=middle;whiteSpace=wrap;rounded=0;" vertex="1" parent="1">
          <mxGeometry x="80" y="60" width="60" height="30" as="geometry" />
        </mxCell>
        <mxCell id="o9fWoudc14TNuLw_aVvr-7" value="" style="rounded=1;whiteSpace=wrap;html=1;arcSize=5;dashed=1;" vertex="1" parent="1">
          <mxGeometry x="490" y="60" width="280" height="120" as="geometry" />
        </mxCell>
        <mxCell id="o9fWoudc14TNuLw_aVvr-8" value="前端" style="rounded=0;whiteSpace=wrap;html=1;" vertex="1" parent="1">
          <mxGeometry x="560" y="90" width="120" height="60" as="geometry" />
        </mxCell>
        <mxCell id="o9fWoudc14TNuLw_aVvr-9" value="后端" style="rounded=0;whiteSpace=wrap;html=1;" vertex="1" parent="1">
          <mxGeometry x="560" y="270" width="120" height="60" as="geometry" />
        </mxCell>
        <mxCell id="o9fWoudc14TNuLw_aVvr-10" value="天翼物联网平台" style="rounded=0;whiteSpace=wrap;html=1;" vertex="1" parent="1">
          <mxGeometry x="560" y="360" width="120" height="60" as="geometry" />
        </mxCell>
        <mxCell id="o9fWoudc14TNuLw_aVvr-11" value="设备已接入平台" style="rounded=0;whiteSpace=wrap;html=1;" vertex="1" parent="1">
          <mxGeometry x="560" y="510" width="120" height="60" as="geometry" />
        </mxCell>
        <mxCell id="o9fWoudc14TNuLw_aVvr-12" value="政务云" style="text;html=1;strokeColor=none;fillColor=none;align=center;verticalAlign=middle;whiteSpace=wrap;rounded=0;" vertex="1" parent="1">
          <mxGeometry x="510" y="60" width="60" height="30" as="geometry" />
        </mxCell>
        <mxCell id="o9fWoudc14TNuLw_aVvr-14" value="天翼云" style="text;html=1;strokeColor=none;fillColor=none;align=center;verticalAlign=middle;whiteSpace=wrap;rounded=0;" vertex="1" parent="1">
          <mxGeometry x="80" y="320" width="60" height="30" as="geometry" />
        </mxCell>
        <mxCell id="o9fWoudc14TNuLw_aVvr-16" value="天翼云" style="text;html=1;strokeColor=none;fillColor=none;align=center;verticalAlign=middle;whiteSpace=wrap;rounded=0;" vertex="1" parent="1">
          <mxGeometry x="500" y="250" width="60" height="30" as="geometry" />
        </mxCell>
        <mxCell id="o9fWoudc14TNuLw_aVvr-18" value="" style="shape=flexArrow;endArrow=classic;startArrow=classic;html=1;rounded=0;" edge="1" parent="1">
          <mxGeometry width="100" height="100" relative="1" as="geometry">
            <mxPoint x="190" y="311" as="sourcePoint" />
            <mxPoint x="190" y="251" as="targetPoint" />
            <Array as="points">
              <mxPoint x="190" y="291" />
            </Array>
          </mxGeometry>
        </mxCell>
        <mxCell id="o9fWoudc14TNuLw_aVvr-19" value="" style="shape=flexArrow;endArrow=classic;startArrow=classic;html=1;rounded=0;" edge="1" parent="1">
          <mxGeometry width="100" height="100" relative="1" as="geometry">
            <mxPoint x="189.5" y="510" as="sourcePoint" />
            <mxPoint x="189.5" y="450" as="targetPoint" />
            <Array as="points">
              <mxPoint x="189.5" y="490" />
            </Array>
          </mxGeometry>
        </mxCell>
        <mxCell id="o9fWoudc14TNuLw_aVvr-20" value="" style="shape=flexArrow;endArrow=classic;startArrow=classic;html=1;rounded=0;" edge="1" parent="1">
          <mxGeometry width="100" height="100" relative="1" as="geometry">
            <mxPoint x="619.5" y="510" as="sourcePoint" />
            <mxPoint x="619.5" y="450" as="targetPoint" />
            <Array as="points">
              <mxPoint x="619.5" y="490" />
            </Array>
          </mxGeometry>
        </mxCell>
        <mxCell id="o9fWoudc14TNuLw_aVvr-21" value="" style="shape=flexArrow;endArrow=classic;startArrow=classic;html=1;rounded=0;" edge="1" parent="1">
          <mxGeometry width="100" height="100" relative="1" as="geometry">
            <mxPoint x="629.5" y="240" as="sourcePoint" />
            <mxPoint x="629.5" y="180" as="targetPoint" />
            <Array as="points">
              <mxPoint x="629.5" y="220" />
            </Array>
          </mxGeometry>
        </mxCell>
        <mxCell id="o9fWoudc14TNuLw_aVvr-22" value="部署方式待确认" style="text;html=1;strokeColor=#d79b00;fillColor=#ffe6cc;align=center;verticalAlign=middle;whiteSpace=wrap;rounded=0;dashed=1;spacing=3;fontSize=17;" vertex="1" parent="1">
          <mxGeometry x="320" width="164" height="30" as="geometry" />
        </mxCell>
      </root>
    </mxGraphModel>
  </diagram>
</mxfile>
